<svg width="669" height="514" viewBox="0 0 669 514" fill="none" xmlns="http://www.w3.org/2000/svg">
<path d="M154.043 355.718L205.84 274.27L89.8401 200.513L29.9351 294.712L125.881 355.718H154.043Z" fill="#F0F0F0"/>
<path d="M227.443 381.126H99.142V355.301H227.443V381.126ZM100.808 379.46H225.777V356.967H100.808V379.46Z" fill="#3F3D56"/>
<path d="M211.614 376.545C216.215 376.545 219.945 372.815 219.945 368.214C219.945 363.613 216.215 359.883 211.614 359.883C207.013 359.883 203.283 363.613 203.283 368.214C203.283 372.815 207.013 376.545 211.614 376.545Z" fill="#6C63FF"/>
<path d="M188.286 376.545C192.888 376.545 196.618 372.815 196.618 368.214C196.618 363.613 192.888 359.883 188.286 359.883C183.685 359.883 179.955 363.613 179.955 368.214C179.955 372.815 183.685 376.545 188.286 376.545Z" fill="#6C63FF"/>
<path d="M164.959 376.545C169.56 376.545 173.29 372.815 173.29 368.214C173.29 363.613 169.56 359.883 164.959 359.883C160.358 359.883 156.628 363.613 156.628 368.214C156.628 372.815 160.358 376.545 164.959 376.545Z" fill="#6C63FF"/>
<path d="M141.631 376.545C146.233 376.545 149.963 372.815 149.963 368.214C149.963 363.613 146.233 359.883 141.631 359.883C137.03 359.883 133.3 363.613 133.3 368.214C133.3 372.815 137.03 376.545 141.631 376.545Z" fill="#6C63FF"/>
<path d="M118.304 376.545C122.905 376.545 126.635 372.815 126.635 368.214C126.635 363.613 122.905 359.883 118.304 359.883C113.703 359.883 109.973 363.613 109.973 368.214C109.973 372.815 113.703 376.545 118.304 376.545Z" fill="#6C63FF"/>
<path d="M379.905 94.1361V30.8233H411.564V0H256.603V154.95H389.07V139.8C389.07 136.976 389.626 134.179 390.707 131.57C391.788 128.961 393.372 126.591 395.369 124.594C397.366 122.597 399.737 121.013 402.346 119.932C404.955 118.851 407.752 118.295 410.576 118.295H411.564V94.1361H379.905Z" fill="#F0F0F0"/>
<path d="M551.529 399.87H448.222V421.53H551.529V399.87Z" fill="#6C63FF"/>
<path d="M574.024 293.238H422.395V313.232H574.024V293.238Z" fill="#F0F0F0"/>
<path d="M648.172 512.334H0V514H648.172V512.334Z" fill="#3F3D56"/>
<path d="M600.005 514H410.576C404.654 513.993 398.975 511.638 394.787 507.45C390.599 503.262 388.243 497.584 388.237 491.662V139.8C388.243 133.878 390.599 128.2 394.787 124.012C398.975 119.824 404.654 117.469 410.576 117.462H600.005C605.928 117.469 611.606 119.824 615.794 124.012C619.982 128.2 622.338 133.878 622.345 139.8V491.662C622.338 497.584 619.982 503.262 615.794 507.45C611.606 511.638 605.928 513.993 600.005 514ZM410.576 119.128C405.095 119.134 399.841 121.314 395.965 125.19C392.089 129.065 389.909 134.319 389.903 139.8V491.662C389.909 497.142 392.089 502.397 395.965 506.272C399.841 510.148 405.095 512.328 410.576 512.334H600.005C605.486 512.328 610.741 510.148 614.617 506.272C618.492 502.397 620.672 497.142 620.679 491.662V139.8C620.672 134.319 618.492 129.065 614.617 125.19C610.741 121.314 605.486 119.134 600.005 119.128H410.576Z" fill="#3F3D56"/>
<path d="M482.796 134.123C481.808 134.123 480.841 133.83 480.019 133.281C479.197 132.732 478.556 131.951 478.178 131.038C477.8 130.124 477.701 129.119 477.894 128.15C478.087 127.18 478.563 126.289 479.262 125.59C479.961 124.891 480.852 124.415 481.821 124.223C482.791 124.03 483.796 124.129 484.709 124.507C485.623 124.885 486.403 125.526 486.953 126.348C487.502 127.17 487.795 128.136 487.795 129.125C487.794 130.45 487.267 131.721 486.329 132.658C485.392 133.595 484.122 134.122 482.796 134.123ZM482.796 125.793C482.137 125.793 481.493 125.988 480.945 126.354C480.397 126.72 479.97 127.241 479.718 127.85C479.465 128.459 479.399 129.129 479.528 129.775C479.656 130.421 479.974 131.015 480.44 131.481C480.906 131.947 481.5 132.264 482.146 132.393C482.793 132.522 483.463 132.456 484.072 132.203C484.681 131.951 485.201 131.524 485.567 130.976C485.933 130.428 486.129 129.784 486.129 129.125C486.128 128.241 485.777 127.394 485.152 126.77C484.527 126.145 483.68 125.794 482.796 125.793Z" fill="#3F3D56"/>
<path d="M531.951 128.292H495.293V129.958H531.951V128.292Z" fill="#3F3D56"/>
<path d="M607.349 141.621V208.266C589.672 208.265 572.72 201.243 560.221 188.745C547.722 176.247 540.7 159.296 540.699 141.621H607.349Z" fill="#6C63FF"/>
<path d="M608.182 491.507H402.4V140.788H608.182V491.507ZM404.066 489.841H606.516V142.454H404.066V489.841Z" fill="#3F3D56"/>
<path opacity="0.1" d="M559.027 204.101C571.451 204.101 581.522 194.03 581.522 181.608C581.522 169.186 571.451 159.115 559.027 159.115C546.604 159.115 536.533 169.186 536.533 181.608C536.533 194.03 546.604 204.101 559.027 204.101Z" fill="black"/>
<path d="M555.695 206.6C568.118 206.6 578.189 196.529 578.189 184.107C578.189 171.685 568.118 161.614 555.695 161.614C543.272 161.614 533.2 171.685 533.2 184.107C533.2 196.529 543.272 206.6 555.695 206.6Z" fill="#6C63FF"/>
<path d="M443.223 154.95H411.564V166.613H443.223V154.95Z" fill="#3F3D56"/>
<path d="M460.719 265.747H429.06V277.41H460.719V265.747Z" fill="#3F3D56"/>
<path d="M582.355 309.066H429.06V287.407H582.355V309.066ZM430.726 307.4H580.689V289.073H430.726V307.4Z" fill="#3F3D56"/>
<path d="M574.024 356.551H422.395V376.545H574.024V356.551Z" fill="#F0F0F0"/>
<path d="M460.719 329.06H429.06V340.723H460.719V329.06Z" fill="#3F3D56"/>
<path d="M582.355 372.379H429.06V350.72H582.355V372.379ZM430.726 370.713H580.689V352.386H430.726V370.713Z" fill="#3F3D56"/>
<path d="M558.194 416.532H453.22V393.206H558.194V416.532ZM454.887 414.866H556.528V394.872H454.887V414.866Z" fill="#3F3D56"/>
<path d="M578.189 300.736C578.189 302.451 577.66 304.124 576.673 305.527C575.687 306.93 574.291 307.994 572.677 308.575C571.063 309.155 569.31 309.224 567.655 308.77C566.001 308.317 564.527 307.364 563.435 306.042L563.426 306.034C562.63 305.068 562.061 303.935 561.763 302.719C561.465 301.503 561.445 300.236 561.704 299.011C561.963 297.786 562.495 296.636 563.26 295.645C564.025 294.654 565.004 293.848 566.124 293.287C567.243 292.727 568.474 292.425 569.726 292.406C570.978 292.387 572.218 292.65 573.354 293.176C574.491 293.702 575.494 294.478 576.289 295.444C577.084 296.411 577.651 297.545 577.948 298.762C577.948 298.763 577.948 298.764 577.948 298.765C577.949 298.766 577.949 298.767 577.95 298.767C577.951 298.768 577.952 298.769 577.953 298.769C577.954 298.77 577.955 298.77 577.956 298.77C578.11 299.414 578.188 300.074 578.189 300.736Z" fill="#6C63FF"/>
<path opacity="0.1" d="M578.189 300.736C578.189 302.451 577.66 304.124 576.673 305.527C575.687 306.93 574.291 307.994 572.677 308.575C571.063 309.155 569.31 309.223 567.655 308.77C566.001 308.317 564.527 307.364 563.435 306.042L563.426 306.034C563.272 305.39 563.194 304.73 563.193 304.068C563.193 302.353 563.723 300.68 564.709 299.277C565.696 297.874 567.091 296.809 568.705 296.229C570.319 295.649 572.073 295.58 573.727 296.033C575.381 296.487 576.855 297.439 577.948 298.761C577.948 298.762 577.948 298.764 577.948 298.765C577.949 298.766 577.949 298.766 577.95 298.767C577.951 298.768 577.952 298.769 577.953 298.769C577.954 298.769 577.955 298.77 577.956 298.77C578.11 299.414 578.188 300.073 578.189 300.736Z" fill="black"/>
<path d="M573.191 314.065C577.792 314.065 581.522 310.335 581.522 305.734C581.522 301.133 577.792 297.403 573.191 297.403C568.589 297.403 564.859 301.133 564.859 305.734C564.859 310.335 568.589 314.065 573.191 314.065Z" fill="#6C63FF"/>
<path d="M578.189 364.049C578.189 365.764 577.66 367.437 576.673 368.84C575.687 370.243 574.291 371.307 572.677 371.888C571.063 372.468 569.31 372.537 567.655 372.083C566.001 371.63 564.527 370.677 563.435 369.355L563.426 369.347C562.63 368.381 562.061 367.248 561.763 366.032C561.465 364.816 561.445 363.549 561.704 362.324C561.963 361.099 562.495 359.949 563.26 358.958C564.025 357.967 565.004 357.161 566.124 356.6C567.243 356.04 568.474 355.738 569.726 355.719C570.978 355.7 572.218 355.963 573.354 356.489C574.491 357.015 575.494 357.79 576.289 358.757C577.084 359.724 577.651 360.858 577.948 362.075C577.948 362.076 577.948 362.077 577.948 362.078C577.949 362.079 577.949 362.08 577.95 362.08C577.951 362.081 577.952 362.082 577.953 362.082C577.954 362.083 577.955 362.083 577.956 362.083C578.11 362.727 578.188 363.387 578.189 364.049Z" fill="#6C63FF"/>
<path opacity="0.1" d="M578.189 364.049C578.189 365.764 577.66 367.437 576.673 368.84C575.687 370.243 574.291 371.307 572.677 371.888C571.063 372.468 569.31 372.536 567.655 372.083C566.001 371.63 564.527 370.677 563.435 369.355L563.426 369.347C563.272 368.703 563.194 368.043 563.193 367.381C563.193 365.666 563.723 363.993 564.709 362.59C565.696 361.187 567.091 360.122 568.705 359.542C570.319 358.962 572.073 358.893 573.727 359.346C575.381 359.8 576.855 360.752 577.948 362.074C577.948 362.075 577.948 362.076 577.948 362.078C577.949 362.079 577.949 362.079 577.95 362.08C577.951 362.081 577.952 362.082 577.953 362.082C577.954 362.082 577.955 362.083 577.956 362.083C578.11 362.727 578.188 363.386 578.189 364.049Z" fill="black"/>
<path d="M573.191 377.378C577.792 377.378 581.522 373.648 581.522 369.047C581.522 364.446 577.792 360.716 573.191 360.716C568.589 360.716 564.859 364.446 564.859 369.047C564.859 373.648 568.589 377.378 573.191 377.378Z" fill="#6C63FF"/>
<path d="M433.225 39.9868H389.903V83.3061H433.225V39.9868Z" fill="#F0F0F0"/>
<path d="M559.027 71.6434C557.05 71.6434 555.117 71.0571 553.473 69.9587C551.829 68.8602 550.547 67.2989 549.791 65.4723C549.034 63.6456 548.836 61.6356 549.222 59.6964C549.608 57.7572 550.56 55.976 551.958 54.5779C553.356 53.1798 555.138 52.2277 557.077 51.842C559.016 51.4563 561.026 51.6542 562.853 52.4109C564.68 53.1675 566.241 54.4488 567.34 56.0928C568.439 57.7367 569.025 59.6695 569.025 61.6467C569.022 64.2971 567.968 66.8381 566.093 68.7122C564.219 70.5863 561.678 71.6405 559.027 71.6434ZM559.027 53.316C557.38 53.316 555.769 53.8046 554.399 54.72C553.029 55.6354 551.961 56.9365 551.33 58.4587C550.7 59.9809 550.535 61.6559 550.856 63.2719C551.178 64.8879 551.971 66.3723 553.136 67.5373C554.301 68.7024 555.786 69.4958 557.402 69.8172C559.018 70.1387 560.693 69.9737 562.216 69.3432C563.738 68.7126 565.039 67.6449 565.955 66.2749C566.87 64.905 567.359 63.2943 567.359 61.6467C567.356 59.438 566.477 57.3206 564.916 55.7588C563.354 54.1971 561.236 53.3186 559.027 53.316Z" fill="#3F3D56"/>
<path d="M339.082 210.765H317.421V189.105H339.082V210.765ZM319.087 209.099H337.416V190.772H319.087V209.099Z" fill="#3F3D56"/>
<path d="M669 372.379H647.339V350.72H669V372.379ZM649.005 370.713H667.334V352.386H649.005V370.713Z" fill="#3F3D56"/>
<path d="M241.609 227.148L245.326 229.15L257.975 235.967L278.395 246.968L290.295 224.891C291.416 222.816 292.116 220.541 292.357 218.196C292.597 215.85 292.372 213.48 291.696 211.222C291.019 208.963 289.904 206.86 288.413 205.033C286.923 203.206 285.087 201.691 283.01 200.574C278.572 198.178 273.488 197.252 268.49 197.93C263.492 198.608 258.838 200.855 255.199 204.347L255.193 204.354C253.402 206.073 251.892 208.062 250.715 210.247L241.609 227.148Z" fill="#2F2E41"/>
<path d="M297.343 452.301L294.848 479.741L285.492 480.988L279.255 449.806L297.343 452.301Z" fill="#FFB8B8"/>
<path d="M282.998 480.989C282.998 480.989 294.848 474.752 297.343 479.741C297.343 479.741 295.472 494.709 302.956 496.58C310.44 498.451 313.559 511.548 302.956 512.795C292.353 514.042 285.492 510.3 281.75 510.3C278.008 510.3 281.75 497.204 281.75 497.204L282.998 480.989Z" fill="#2F2E41"/>
<path d="M221.875 452.301L224.37 479.741L233.725 480.988L239.962 449.806L221.875 452.301Z" fill="#FFB8B8"/>
<path d="M236.22 480.989C236.22 480.989 224.369 474.752 221.875 479.741C221.875 479.741 223.746 494.709 216.261 496.58C208.777 498.451 205.658 511.548 216.261 512.795C226.864 514.042 233.725 510.3 237.467 510.3C241.209 510.3 237.467 497.204 237.467 497.204L236.22 480.989Z" fill="#2F2E41"/>
<path d="M273.018 232.15C281.974 232.15 289.235 224.891 289.235 215.935C289.235 206.98 281.974 199.72 273.018 199.72C264.062 199.72 256.802 206.98 256.802 215.935C256.802 224.891 264.062 232.15 273.018 232.15Z" fill="#FFB8B8"/>
<path d="M221.251 247.741L234.349 268.322L249.941 267.075L275.513 268.946C275.513 268.946 277.927 264.119 279.898 259.423C280.977 257.077 281.807 254.625 282.374 252.107C282.997 247.741 274.266 243.376 274.266 243.376C274.266 243.376 273.923 243.314 273.349 243.176C272.588 242.995 271.415 242.696 270.13 242.26C267.23 241.274 263.744 239.603 263.039 237.139C261.792 232.774 271.147 226.537 271.147 226.537L259.92 215.935C259.92 215.935 249.947 229.786 237.835 232.942C237.133 233.128 236.421 233.273 235.702 233.379C235.665 233.385 235.634 233.391 235.596 233.397C222.498 235.268 221.251 247.741 221.251 247.741Z" fill="#FFB8B8"/>
<path d="M228.112 242.128L221.251 247.741C221.251 247.741 215.638 274.558 217.509 282.042C219.38 289.526 216.885 296.386 216.885 297.634C216.885 298.881 211.272 345.655 211.272 345.655C211.272 345.655 200.045 370.601 211.895 368.107C223.746 365.612 219.38 340.666 219.38 340.666L233.725 297.01V260.214L228.112 242.128Z" fill="#FFB8B8"/>
<path d="M277.384 247.118L282.374 250.86L284.869 303.247L303.58 348.15C303.58 348.15 317.301 369.978 308.569 370.601C299.837 371.225 294.224 348.15 294.224 348.15L277.384 305.118L274.889 263.333L277.384 247.118Z" fill="#FFB8B8"/>
<path d="M246.199 250.86C246.199 250.86 258.673 259.591 278.632 256.473C278.632 256.473 284.245 267.699 281.126 273.935C278.008 280.172 284.869 295.139 286.116 297.01C287.363 298.881 301.709 337.548 306.698 379.333C311.688 421.118 325.409 449.806 313.559 453.548C301.709 457.29 277.384 461.655 274.889 457.913C272.395 454.171 268.652 361.247 268.652 361.247L261.792 396.795C261.792 396.795 271.147 457.29 264.286 458.537C257.426 459.784 214.39 456.042 215.638 448.559C216.885 441.075 229.359 401.784 229.359 401.784C229.359 401.784 228.735 323.204 241.21 308.236C241.21 308.236 246.199 300.129 239.338 289.526C232.478 278.924 233.101 262.086 233.101 262.086C233.101 262.086 238.091 262.086 246.199 250.86Z" fill="#2F2E41"/>
<path d="M235.702 233.378L246.2 256.473L248.694 255.226L237.835 232.942L235.702 233.378Z" fill="#2F2E41"/>
<path d="M270.131 242.26L278.008 259.591L279.898 259.423L279.255 256.473L273.349 243.177C272.588 242.996 271.415 242.696 270.131 242.26Z" fill="#2F2E41"/>
<path d="M245.326 229.15C245.926 231.08 247.081 232.789 248.648 234.064C250.215 235.34 252.124 236.125 254.135 236.32C256.146 236.516 258.17 236.114 259.954 235.165C261.737 234.216 263.201 232.761 264.162 230.984C256.272 220.669 263.039 214.189 275.856 209.287C276.822 207.495 277.232 205.457 277.036 203.431C276.839 201.405 276.044 199.484 274.752 197.911C271.219 197.46 267.63 197.803 264.247 198.917C260.864 200.03 257.773 201.886 255.199 204.347L255.193 204.354L246.087 221.242C245.438 222.443 245.037 223.761 244.906 225.119C244.776 226.477 244.918 227.848 245.326 229.15Z" fill="#2F2E41"/>
<path d="M263.351 221.548C264.557 221.548 265.534 219.872 265.534 217.806C265.534 215.739 264.557 214.064 263.351 214.064C262.145 214.064 261.168 215.739 261.168 217.806C261.168 219.872 262.145 221.548 263.351 221.548Z" fill="#FFB8B8"/>
<path d="M269.856 211.7L288.605 220.194L292.041 212.611C291.449 209.839 290.21 207.247 288.424 205.046L275.519 199.202L269.856 211.7Z" fill="#2F2E41"/>
<path d="M314.922 379.044C319.523 379.044 323.253 375.314 323.253 370.713C323.253 366.112 319.523 362.382 314.922 362.382C310.32 362.382 306.59 366.112 306.59 370.713C306.59 375.314 310.32 379.044 314.922 379.044Z" fill="#6C63FF"/>
<path d="M47.452 428.566C50.4591 428.566 52.8968 426.129 52.8968 423.122C52.8968 420.115 50.4591 417.678 47.452 417.678C44.4449 417.678 42.0072 420.115 42.0072 423.122C42.0072 426.129 44.4449 428.566 47.452 428.566Z" fill="#FF6584"/>
<path d="M74.9606 451.498H73.2943V513.487H74.9606V451.498Z" fill="#3F3D56"/>
<path d="M74.1277 460.263C78.9695 460.263 82.8945 456.339 82.8945 451.497C82.8945 446.656 78.9695 442.731 74.1277 442.731C69.2859 442.731 65.3608 446.656 65.3608 451.497C65.3608 456.339 69.2859 460.263 74.1277 460.263Z" fill="#3F3D56"/>
<path d="M74.1276 489.703C74.1276 489.703 72.8752 462.768 47.2009 465.899L74.1276 489.703Z" fill="#3F3D56"/>
</svg>
