<svg width="768" height="530" viewBox="0 0 768 530" fill="none" xmlns="http://www.w3.org/2000/svg">
<g clip-path="url(#clip0)">
<path opacity="0.1" d="M434.403 72.1565C385.176 72.2224 337.792 58.2728 292.469 42.7761C247.147 27.2794 202.173 9.92635 153.861 2.57302C122.79 -2.15366 87.4576 -1.71917 63.1697 15.443C39.7906 31.9535 33.0205 59.28 29.754 84.5262C27.2976 103.518 26.1648 123.452 35.365 140.825C41.7531 152.885 52.6853 162.826 60.3905 174.32C87.2863 214.306 71.112 265.384 44.9735 306.298C32.7176 325.495 18.3608 343.894 9.0948 364.19C-0.171226 384.486 -3.97115 407.5 5.47927 427.533C14.8441 447.387 35.9972 461.798 58.698 471.64C104.798 491.665 158.471 495.958 210.702 497.61C326.319 501.277 442.161 493.798 557.693 486.32C600.448 483.555 643.393 480.77 685.264 472.759C708.512 468.315 732.451 461.719 748.935 447.262C769.857 428.909 774.138 398.942 758.912 377.402C733.379 341.274 666.054 334.461 647.746 295.37C637.65 273.85 646.356 249.17 659.179 228.427C686.68 183.918 734.018 144.051 734.815 94.2692C735.361 60.0831 710.744 26.733 673.977 11.875C635.437 -3.68752 582.89 0.315009 555.889 29.3202C528.124 59.201 477.869 72.1105 434.403 72.1565Z" fill="#6C63FF"/>
<path d="M653.647 424.848C653.647 424.848 645.553 419.509 637.531 423.308C637.531 423.308 640.001 428.061 650.156 427.613L653.647 424.848Z" fill="#6C63FF"/>
<path d="M654.674 425.131C654.674 425.131 657.137 434.505 650.96 440.884C650.96 440.884 647.245 437.02 650.96 427.553L654.674 425.131Z" fill="#6C63FF"/>
<path d="M664.737 416.132C664.737 416.132 664.138 408.159 646.126 410.806C646.126 410.806 646.04 415.947 652.362 418.383C658.685 420.819 661.582 418.765 664.737 416.132Z" fill="#6C63FF"/>
<path d="M665.87 416.079C665.87 416.079 673.483 418.521 666.693 435.407C666.693 435.407 661.668 434.288 660.766 427.567C659.863 420.845 662.537 418.528 665.87 416.079Z" fill="#6C63FF"/>
<path d="M676.038 404.769C676.038 404.769 677.072 391.649 658.665 392.992C658.665 392.992 657.348 404.842 672.791 407.923L676.038 404.769Z" fill="#6C63FF"/>
<path d="M688.202 389.958C688.202 389.958 685.679 375.086 667.279 379.517C667.279 379.517 667.213 392.374 685.198 393.499L688.202 389.958Z" fill="#6C63FF"/>
<path d="M697.092 374.645C697.092 374.645 692.864 360.162 674.635 364.494C674.635 364.494 678.975 377.522 695.88 377.318L697.092 374.645Z" fill="#6C63FF"/>
<path d="M705.535 359.688C705.535 359.688 701.406 344.659 683.802 349.155C683.802 349.155 689.677 363.434 704.369 362.23L705.535 359.688Z" fill="#6C63FF"/>
<path d="M710.975 345.482C710.975 345.482 707.8 327.102 691.389 331.17C691.389 331.17 696.157 347.892 709.77 348.161L710.975 345.482Z" fill="#6C63FF"/>
<path d="M716.079 328.32C716.079 328.32 712.266 309.795 695.663 315.154C695.663 315.154 702.17 332.665 714.9 330.854L716.079 328.32Z" fill="#6C63FF"/>
<path d="M719.213 312.349C719.213 312.349 713.161 293.818 700.326 294.318C700.326 294.318 706.51 313.89 718.14 316.042L719.213 312.349Z" fill="#6C63FF"/>
<path d="M721.242 296.76C721.242 296.76 714.656 274.457 704.211 276.175C704.211 276.175 708.768 293.225 720.873 300.236L721.242 296.76Z" fill="#6C63FF"/>
<path d="M722.388 278.163C722.388 278.163 716.21 259.579 705.923 258.835C705.923 258.835 710.125 277.123 722.184 282.995L722.388 278.163Z" fill="#6C63FF"/>
<path d="M723.632 260.81C723.632 260.81 715.934 242.206 709.144 241.785C709.144 241.785 712.489 260.105 722.974 263.864L723.632 260.81Z" fill="#6C63FF"/>
<path d="M724.482 244.668C724.482 244.668 719.747 224.464 712.944 222.786C712.944 222.786 713.872 239.316 723.797 246.182L724.482 244.668Z" fill="#6C63FF"/>
<path d="M727.05 223.523C727.05 223.523 722.072 207.414 716.559 204.958C716.559 204.958 717.646 223.951 725.779 227.46L727.05 223.523Z" fill="#6C63FF"/>
<path d="M729.178 209.698L730.179 181.299C730.179 181.299 719.872 202.707 728.433 214.682L729.178 209.698Z" fill="#6C63FF"/>
<path d="M737.133 181.451C737.133 181.451 744.555 160.714 746.353 159.555C746.353 159.555 731.799 173.011 733.221 190.318L737.133 181.451Z" fill="#6C63FF"/>
<path d="M676.538 404.67C676.538 404.67 689.591 402.965 689.203 421.405C689.203 421.405 677.408 423.327 673.555 408.074L676.538 404.67Z" fill="#6C63FF"/>
<path d="M688.821 389.457C688.821 389.457 703.902 389.411 702.65 408.285C702.65 408.285 689.986 410.549 685.811 393.025L688.821 389.457Z" fill="#6C63FF"/>
<path d="M697.237 375.863C697.237 375.863 710.929 369.444 719.688 386.014C719.688 386.014 707.043 391.359 696.025 378.542L697.237 375.863Z" fill="#6C63FF"/>
<path d="M705.838 359.827C705.838 359.827 719.859 353 728.091 369.181C728.091 369.181 713.484 374.211 704.679 362.388L705.838 359.827Z" fill="#6C63FF"/>
<path d="M710.797 345.883C710.797 345.883 724.291 333 735.058 346.028C735.058 346.028 721.275 356.634 710.178 348.754L710.797 345.883Z" fill="#6C63FF"/>
<path d="M715.315 327.878C715.315 327.878 728.888 314.712 739.57 328.484C739.57 328.484 724.337 339.3 714.827 330.643L715.315 327.878Z" fill="#6C63FF"/>
<path d="M717.85 311.823C717.85 311.823 728.308 295.365 740.623 299.038C740.623 299.038 729.77 316.464 717.969 315.687L717.85 311.823Z" fill="#6C63FF"/>
<path d="M720.932 296.655C720.932 296.655 731.469 275.931 741.44 279.539C741.44 279.539 733.84 295.47 720.662 300.151L720.932 296.655Z" fill="#6C63FF"/>
<path d="M721.663 277.083C721.663 277.083 732.497 260.77 742.645 262.765C742.645 262.765 733.787 279.308 720.609 281.803L721.663 277.083Z" fill="#6C63FF"/>
<path d="M722.506 260.448C722.506 260.448 730.903 242.14 737.726 242.015C737.726 242.015 733.695 260.191 723.073 263.555L722.506 260.448Z" fill="#6C63FF"/>
<path d="M724.153 244.273C724.153 244.273 733.485 225.735 740.498 225.695C740.498 225.695 735.724 241.547 724.462 245.899L724.153 244.273Z" fill="#6C63FF"/>
<path d="M725.555 224.682C725.555 224.682 732.536 209.343 738.318 207.605C738.318 207.605 734.828 226.301 726.326 228.75L725.555 224.682Z" fill="#6C63FF"/>
<path d="M730.007 209.139L745.609 185.38C745.609 185.38 741.611 208.816 727.729 213.688L730.007 209.139Z" fill="#6C63FF"/>
<path d="M740.716 183.366C740.716 183.366 758.846 170.858 759.505 168.837C759.505 168.837 750.285 186.355 733.162 189.449L740.716 183.366Z" fill="#6C63FF"/>
<path d="M741.802 177.737C741.802 177.737 762.619 157.731 767.934 157.751C767.934 157.751 750.765 158.534 741.302 176.671L741.802 177.737Z" fill="#6C63FF"/>
<path d="M725.76 227.651L726.517 227.75C730.429 197.145 736.132 179.034 742.573 176.816L742.322 176.092C735.493 178.462 729.75 196.295 725.76 227.651Z" fill="#444053"/>
<path d="M720.004 300.842L721.15 300.934C721.393 298.077 721.578 295.154 721.703 292.237C722.796 266.906 724.489 243.641 726.714 226.202L726.056 225.379C723.823 242.858 721.65 266.82 720.557 292.191C720.432 295.088 720.247 297.998 720.004 300.842Z" fill="#444053"/>
<path d="M632.283 439.449C632.48 439.364 652.652 430.358 673.588 408.884C685.854 396.307 696.046 381.864 703.783 366.094C713.464 346.39 719.365 322.178 721.341 298.656L720.149 299.216C715.703 352.012 691.659 388.088 672.541 407.738C651.809 429.022 631.861 437.935 631.664 438.021L632.283 439.449Z" fill="#444053"/>
<path d="M684.514 56.1079H51.7106C50.2155 56.1079 48.7816 56.7016 47.7244 57.7584C46.6672 58.8152 46.0733 60.2485 46.0733 61.7431V78.1613H690.151V61.7431C690.151 60.2485 689.557 58.8152 688.5 57.7584C687.443 56.7016 686.009 56.1079 684.514 56.1079Z" fill="#3F3D56"/>
<path d="M46.0733 78.1611V447.632C46.0733 450.645 47.2709 453.535 49.4026 455.666C51.5343 457.797 54.4255 458.994 57.4401 458.994H678.784C681.799 458.994 684.69 457.797 686.822 455.666C688.953 453.535 690.151 450.645 690.151 447.632V78.1611H46.0733Z" fill="white"/>
<path opacity="0.8" d="M56.2745 69.6034C57.7294 69.6034 58.9088 68.4245 58.9088 66.9702C58.9088 65.5159 57.7294 64.3369 56.2745 64.3369C54.8197 64.3369 53.6403 65.5159 53.6403 66.9702C53.6403 68.4245 54.8197 69.6034 56.2745 69.6034Z" fill="#FA5959"/>
<path opacity="0.8" d="M63.5187 69.6034C64.9735 69.6034 66.1529 68.4245 66.1529 66.9702C66.1529 65.5159 64.9735 64.3369 63.5187 64.3369C62.0638 64.3369 60.8844 65.5159 60.8844 66.9702C60.8844 68.4245 62.0638 69.6034 63.5187 69.6034Z" fill="#FED253"/>
<path opacity="0.8" d="M70.7629 69.6034C72.2178 69.6034 73.3972 68.4245 73.3972 66.9702C73.3972 65.5159 72.2178 64.3369 70.7629 64.3369C69.3081 64.3369 68.1287 65.5159 68.1287 66.9702C68.1287 68.4245 69.3081 69.6034 70.7629 69.6034Z" fill="#8CCF4D"/>
<path opacity="0.05" d="M623.576 139.766H105.943V367.292H623.576V139.766Z" fill="black"/>
<path d="M619.625 141.491H109.895V364H619.625V141.491Z" fill="#3F3D56"/>
<path d="M248.852 198.757C238.823 198.757 229.019 201.73 220.68 207.3C212.341 212.87 205.841 220.787 202.003 230.049C198.165 239.311 197.161 249.504 199.117 259.336C201.074 269.169 205.903 278.201 212.995 285.291C220.087 292.38 229.123 297.207 238.959 299.163C248.796 301.119 258.992 300.115 268.258 296.279C277.524 292.442 285.444 285.945 291.016 277.609C296.588 269.273 299.562 259.473 299.562 249.447C299.562 242.791 298.25 236.199 295.702 230.049C293.154 223.899 289.418 218.311 284.71 213.604C280.001 208.897 274.41 205.163 268.258 202.616C262.106 200.068 255.512 198.757 248.852 198.757ZM257.947 250.665V274.667H240.021V250.665C237.54 248.788 235.712 246.18 234.794 243.208C233.877 240.236 233.916 237.052 234.906 234.103C235.896 231.155 237.788 228.592 240.314 226.776C242.84 224.961 245.873 223.984 248.984 223.984C252.095 223.984 255.128 224.961 257.654 226.776C260.18 228.592 262.072 231.155 263.062 234.103C264.053 237.052 264.092 240.236 263.174 243.208C262.256 246.18 260.428 248.788 257.947 250.665Z" fill="#6C63FF"/>
<path opacity="0.05" d="M248.852 198.757C238.823 198.757 229.019 201.73 220.68 207.3C212.341 212.87 205.841 220.787 202.003 230.049C198.165 239.311 197.161 249.504 199.117 259.336C201.074 269.169 205.903 278.201 212.995 285.291C220.087 292.38 229.123 297.207 238.959 299.163C248.796 301.119 258.992 300.115 268.258 296.279C277.524 292.442 285.444 285.945 291.016 277.609C296.588 269.273 299.562 259.473 299.562 249.447C299.562 242.791 298.25 236.199 295.702 230.049C293.154 223.899 289.418 218.311 284.71 213.604C280.001 208.897 274.41 205.163 268.258 202.616C262.106 200.068 255.512 198.757 248.852 198.757ZM257.947 250.665V274.667H240.021V250.665C237.54 248.788 235.712 246.18 234.794 243.208C233.877 240.236 233.916 237.052 234.906 234.103C235.896 231.155 237.788 228.592 240.314 226.776C242.84 224.961 245.873 223.984 248.984 223.984C252.095 223.984 255.128 224.961 257.654 226.776C260.18 228.592 262.072 231.155 263.062 234.103C264.053 237.052 264.092 240.236 263.174 243.208C262.256 246.18 260.428 248.788 257.947 250.665Z" fill="black"/>
<path d="M248.852 184.274C235.957 184.274 223.352 188.097 212.63 195.258C201.909 202.419 193.552 212.598 188.617 224.507C183.683 236.415 182.391 249.52 184.907 262.162C187.423 274.804 193.632 286.417 202.75 295.531C211.869 304.646 223.486 310.853 236.133 313.368C248.78 315.883 261.889 314.592 273.803 309.659C285.716 304.726 295.899 296.373 303.063 285.655C310.227 274.938 314.05 262.337 314.05 249.447C314.05 232.162 307.181 215.585 294.954 203.363C282.727 191.141 266.144 184.274 248.852 184.274ZM260.542 251.014V281.869H237.492V251.014C234.301 248.6 231.95 245.246 230.769 241.424C229.588 237.602 229.638 233.506 230.912 229.715C232.185 225.923 234.618 222.627 237.867 220.291C241.115 217.956 245.016 216.7 249.017 216.7C253.018 216.7 256.919 217.956 260.167 220.291C263.416 222.627 265.849 225.923 267.122 229.715C268.396 233.506 268.446 237.602 267.265 241.424C266.084 245.246 263.733 248.6 260.542 251.014Z" fill="#6C63FF"/>
<path d="M551.793 240.896H341.052V263.279H551.793V240.896Z" fill="white"/>
<path d="M551.793 281.711H506.352V304.094H551.793V281.711Z" fill="#6C63FF"/>
<path d="M361.796 251.751H357.983L361.375 248.368C361.436 248.305 361.47 248.221 361.47 248.134C361.47 248.047 361.436 247.963 361.375 247.9C361.344 247.869 361.308 247.845 361.268 247.828C361.228 247.811 361.185 247.803 361.141 247.803C361.098 247.803 361.055 247.811 361.014 247.828C360.974 247.845 360.938 247.869 360.907 247.9L357.516 251.29V247.472C357.516 247.385 357.481 247.301 357.419 247.239C357.358 247.178 357.274 247.143 357.186 247.143C357.1 247.145 357.017 247.18 356.955 247.241C356.894 247.303 356.859 247.385 356.857 247.472V251.29L353.472 247.88C353.442 247.85 353.405 247.825 353.365 247.808C353.325 247.792 353.282 247.783 353.238 247.783C353.195 247.783 353.152 247.792 353.112 247.808C353.072 247.825 353.035 247.85 353.005 247.88C352.944 247.943 352.91 248.027 352.91 248.114C352.91 248.201 352.944 248.285 353.005 248.348L356.396 251.732H352.576C352.49 251.733 352.407 251.768 352.345 251.83C352.284 251.891 352.249 251.974 352.247 252.061C352.247 252.148 352.282 252.232 352.344 252.293C352.405 252.355 352.489 252.39 352.576 252.39H356.396L353.005 255.78C352.944 255.843 352.91 255.927 352.91 256.014C352.91 256.101 352.944 256.185 353.005 256.248C353.068 256.307 353.151 256.34 353.238 256.34C353.325 256.34 353.409 256.307 353.472 256.248L356.857 252.857V256.669C356.857 256.756 356.892 256.84 356.954 256.902C357.015 256.963 357.099 256.998 357.186 256.998C357.274 256.998 357.358 256.963 357.419 256.902C357.481 256.84 357.516 256.756 357.516 256.669V252.857L360.907 256.248C360.971 256.307 361.054 256.34 361.141 256.34C361.228 256.34 361.311 256.307 361.375 256.248C361.436 256.185 361.47 256.101 361.47 256.014C361.47 255.927 361.436 255.843 361.375 255.78L357.983 252.39H361.796C361.884 252.39 361.967 252.355 362.029 252.293C362.091 252.232 362.126 252.148 362.126 252.061C362.121 251.977 362.084 251.898 362.023 251.841C361.961 251.783 361.88 251.751 361.796 251.751Z" fill="#6C63FF"/>
<path d="M375.626 251.751H371.813L375.205 248.368C375.266 248.305 375.3 248.221 375.3 248.134C375.3 248.047 375.266 247.963 375.205 247.9C375.174 247.869 375.138 247.845 375.098 247.828C375.058 247.811 375.015 247.803 374.971 247.803C374.928 247.803 374.885 247.811 374.844 247.828C374.804 247.845 374.768 247.869 374.737 247.9L371.346 251.29V247.472C371.346 247.385 371.311 247.301 371.249 247.239C371.187 247.178 371.104 247.143 371.016 247.143C370.93 247.145 370.847 247.18 370.785 247.241C370.724 247.303 370.689 247.385 370.687 247.472V251.29L367.302 247.88C367.271 247.85 367.235 247.825 367.195 247.808C367.155 247.792 367.112 247.783 367.068 247.783C367.025 247.783 366.982 247.792 366.942 247.808C366.902 247.825 366.865 247.85 366.834 247.88C366.774 247.943 366.74 248.027 366.74 248.114C366.74 248.201 366.774 248.285 366.834 248.348L370.226 251.732H366.406C366.32 251.733 366.237 251.768 366.175 251.83C366.114 251.891 366.079 251.974 366.077 252.061C366.077 252.148 366.112 252.232 366.174 252.293C366.235 252.355 366.319 252.39 366.406 252.39H370.226L366.834 255.78C366.774 255.843 366.74 255.927 366.74 256.014C366.74 256.101 366.774 256.185 366.834 256.248C366.898 256.307 366.981 256.34 367.068 256.34C367.155 256.34 367.239 256.307 367.302 256.248L370.687 252.857V256.669C370.687 256.756 370.722 256.84 370.784 256.902C370.845 256.963 370.929 256.998 371.016 256.998C371.104 256.998 371.187 256.963 371.249 256.902C371.311 256.84 371.346 256.756 371.346 256.669V252.857L374.737 256.248C374.801 256.307 374.884 256.34 374.971 256.34C375.058 256.34 375.141 256.307 375.205 256.248C375.266 256.185 375.3 256.101 375.3 256.014C375.3 255.927 375.266 255.843 375.205 255.78L371.813 252.39H375.626C375.714 252.39 375.797 252.355 375.859 252.293C375.921 252.232 375.956 252.148 375.956 252.061C375.951 251.977 375.914 251.898 375.852 251.841C375.791 251.783 375.71 251.751 375.626 251.751Z" fill="#6C63FF"/>
<path d="M389.456 251.751H385.643L389.035 248.368C389.095 248.305 389.129 248.221 389.129 248.134C389.129 248.047 389.095 247.963 389.035 247.9C389.004 247.869 388.968 247.845 388.928 247.828C388.887 247.811 388.844 247.803 388.801 247.803C388.757 247.803 388.714 247.811 388.674 247.828C388.634 247.845 388.598 247.869 388.567 247.9L385.176 251.29V247.472C385.176 247.385 385.141 247.301 385.079 247.239C385.017 247.178 384.934 247.143 384.846 247.143C384.759 247.145 384.677 247.18 384.615 247.241C384.554 247.303 384.519 247.385 384.517 247.472V251.29L381.132 247.88C381.101 247.85 381.065 247.825 381.025 247.808C380.985 247.792 380.942 247.783 380.898 247.783C380.855 247.783 380.812 247.792 380.771 247.808C380.731 247.825 380.695 247.85 380.664 247.88C380.604 247.943 380.57 248.027 380.57 248.114C380.57 248.201 380.604 248.285 380.664 248.348L384.056 251.732H380.236C380.149 251.733 380.067 251.768 380.005 251.83C379.944 251.891 379.909 251.974 379.907 252.061C379.907 252.148 379.942 252.232 380.003 252.293C380.065 252.355 380.149 252.39 380.236 252.39H384.056L380.664 255.78C380.604 255.843 380.57 255.927 380.57 256.014C380.57 256.101 380.604 256.185 380.664 256.248C380.728 256.307 380.811 256.34 380.898 256.34C380.985 256.34 381.068 256.307 381.132 256.248L384.517 252.857V256.669C384.517 256.756 384.552 256.84 384.613 256.902C384.675 256.963 384.759 256.998 384.846 256.998C384.934 256.998 385.017 256.963 385.079 256.902C385.141 256.84 385.176 256.756 385.176 256.669V252.857L388.567 256.248C388.631 256.307 388.714 256.34 388.801 256.34C388.888 256.34 388.971 256.307 389.035 256.248C389.095 256.185 389.129 256.101 389.129 256.014C389.129 255.927 389.095 255.843 389.035 255.78L385.643 252.39H389.456C389.544 252.39 389.627 252.355 389.689 252.293C389.751 252.232 389.785 252.148 389.785 252.061C389.78 251.977 389.744 251.898 389.682 251.841C389.621 251.783 389.54 251.751 389.456 251.751Z" fill="#6C63FF"/>
<path d="M403.286 251.751H399.473L402.865 248.368C402.925 248.305 402.959 248.221 402.959 248.134C402.959 248.047 402.925 247.963 402.865 247.9C402.834 247.869 402.798 247.845 402.757 247.828C402.717 247.811 402.674 247.803 402.631 247.803C402.587 247.803 402.544 247.811 402.504 247.828C402.464 247.845 402.428 247.869 402.397 247.9L399.005 251.29V247.472C399.005 247.385 398.971 247.301 398.909 247.239C398.847 247.178 398.763 247.143 398.676 247.143C398.589 247.145 398.506 247.18 398.445 247.241C398.384 247.303 398.348 247.385 398.347 247.472V251.29L394.962 247.88C394.931 247.85 394.895 247.825 394.855 247.808C394.814 247.792 394.771 247.783 394.728 247.783C394.684 247.783 394.641 247.792 394.601 247.808C394.561 247.825 394.525 247.85 394.494 247.88C394.433 247.943 394.399 248.027 394.399 248.114C394.399 248.201 394.433 248.285 394.494 248.348L397.886 251.732H394.066C393.979 251.733 393.896 251.768 393.835 251.83C393.774 251.891 393.739 251.974 393.737 252.061C393.737 252.148 393.771 252.232 393.833 252.293C393.895 252.355 393.979 252.39 394.066 252.39H397.886L394.494 255.78C394.433 255.843 394.399 255.927 394.399 256.014C394.399 256.101 394.433 256.185 394.494 256.248C394.558 256.307 394.641 256.34 394.728 256.34C394.815 256.34 394.898 256.307 394.962 256.248L398.347 252.857V256.669C398.347 256.756 398.381 256.84 398.443 256.902C398.505 256.963 398.589 256.998 398.676 256.998C398.763 256.998 398.847 256.963 398.909 256.902C398.971 256.84 399.005 256.756 399.005 256.669V252.857L402.397 256.248C402.46 256.307 402.544 256.34 402.631 256.34C402.718 256.34 402.801 256.307 402.865 256.248C402.925 256.185 402.959 256.101 402.959 256.014C402.959 255.927 402.925 255.843 402.865 255.78L399.473 252.39H403.286C403.373 252.39 403.457 252.355 403.519 252.293C403.581 252.232 403.615 252.148 403.615 252.061C403.61 251.977 403.573 251.898 403.512 251.841C403.451 251.783 403.37 251.751 403.286 251.751Z" fill="#6C63FF"/>
<path d="M417.116 251.751H413.303L416.695 248.368C416.755 248.305 416.789 248.221 416.789 248.134C416.789 248.047 416.755 247.963 416.695 247.9C416.664 247.869 416.627 247.845 416.587 247.828C416.547 247.811 416.504 247.803 416.461 247.803C416.417 247.803 416.374 247.811 416.334 247.828C416.294 247.845 416.258 247.869 416.227 247.9L412.835 251.29V247.472C412.835 247.385 412.801 247.301 412.739 247.239C412.677 247.178 412.593 247.143 412.506 247.143C412.419 247.145 412.336 247.18 412.275 247.241C412.214 247.303 412.178 247.385 412.177 247.472V251.29L408.792 247.88C408.761 247.85 408.725 247.825 408.685 247.808C408.644 247.792 408.601 247.783 408.558 247.783C408.514 247.783 408.471 247.792 408.431 247.808C408.391 247.825 408.355 247.85 408.324 247.88C408.263 247.943 408.229 248.027 408.229 248.114C408.229 248.201 408.263 248.285 408.324 248.348L411.716 251.732H407.896C407.809 251.733 407.726 251.768 407.665 251.83C407.604 251.891 407.568 251.974 407.567 252.061C407.567 252.148 407.601 252.232 407.663 252.293C407.725 252.355 407.809 252.39 407.896 252.39H411.716L408.324 255.78C408.263 255.843 408.229 255.927 408.229 256.014C408.229 256.101 408.263 256.185 408.324 256.248C408.388 256.307 408.471 256.34 408.558 256.34C408.645 256.34 408.728 256.307 408.792 256.248L412.177 252.857V256.669C412.177 256.756 412.211 256.84 412.273 256.902C412.335 256.963 412.419 256.998 412.506 256.998C412.593 256.998 412.677 256.963 412.739 256.902C412.801 256.84 412.835 256.756 412.835 256.669V252.857L416.227 256.248C416.29 256.307 416.374 256.34 416.461 256.34C416.547 256.34 416.631 256.307 416.695 256.248C416.755 256.185 416.789 256.101 416.789 256.014C416.789 255.927 416.755 255.843 416.695 255.78L413.303 252.39H417.116C417.203 252.39 417.287 252.355 417.349 252.293C417.411 252.232 417.445 252.148 417.445 252.061C417.44 251.977 417.403 251.898 417.342 251.841C417.281 251.783 417.2 251.751 417.116 251.751Z" fill="#6C63FF"/>
<path d="M430.946 251.751H427.133L430.524 248.368C430.585 248.305 430.619 248.221 430.619 248.134C430.619 248.047 430.585 247.963 430.524 247.9C430.494 247.869 430.457 247.845 430.417 247.828C430.377 247.811 430.334 247.803 430.291 247.803C430.247 247.803 430.204 247.811 430.164 247.828C430.124 247.845 430.087 247.869 430.057 247.9L426.665 251.29V247.472C426.665 247.385 426.631 247.301 426.569 247.239C426.507 247.178 426.423 247.143 426.336 247.143C426.249 247.145 426.166 247.18 426.105 247.241C426.044 247.303 426.008 247.385 426.007 247.472V251.29L422.622 247.88C422.591 247.85 422.555 247.825 422.514 247.808C422.474 247.792 422.431 247.783 422.388 247.783C422.344 247.783 422.301 247.792 422.261 247.808C422.221 247.825 422.185 247.85 422.154 247.88C422.093 247.943 422.059 248.027 422.059 248.114C422.059 248.201 422.093 248.285 422.154 248.348L425.546 251.732H421.726C421.639 251.733 421.556 251.768 421.495 251.83C421.434 251.891 421.398 251.974 421.397 252.061C421.397 252.148 421.431 252.232 421.493 252.293C421.555 252.355 421.639 252.39 421.726 252.39H425.546L422.154 255.78C422.093 255.843 422.059 255.927 422.059 256.014C422.059 256.101 422.093 256.185 422.154 256.248C422.217 256.307 422.301 256.34 422.388 256.34C422.475 256.34 422.558 256.307 422.622 256.248L426.007 252.857V256.669C426.007 256.756 426.041 256.84 426.103 256.902C426.165 256.963 426.249 256.998 426.336 256.998C426.423 256.998 426.507 256.963 426.569 256.902C426.631 256.84 426.665 256.756 426.665 256.669V252.857L430.057 256.248C430.12 256.307 430.204 256.34 430.291 256.34C430.377 256.34 430.461 256.307 430.524 256.248C430.585 256.185 430.619 256.101 430.619 256.014C430.619 255.927 430.585 255.843 430.524 255.78L427.133 252.39H430.946C431.033 252.39 431.117 252.355 431.179 252.293C431.24 252.232 431.275 252.148 431.275 252.061C431.27 251.977 431.233 251.898 431.172 251.841C431.111 251.783 431.03 251.751 430.946 251.751Z" fill="#6C63FF"/>
<path d="M444.776 251.751H440.963L444.354 248.368C444.415 248.305 444.449 248.221 444.449 248.134C444.449 248.047 444.415 247.963 444.354 247.9C444.324 247.869 444.287 247.845 444.247 247.828C444.207 247.811 444.164 247.803 444.12 247.803C444.077 247.803 444.034 247.811 443.994 247.828C443.954 247.845 443.917 247.869 443.887 247.9L440.495 251.29V247.472C440.495 247.385 440.46 247.301 440.399 247.239C440.337 247.178 440.253 247.143 440.166 247.143C440.079 247.145 439.996 247.18 439.935 247.241C439.873 247.303 439.838 247.385 439.837 247.472V251.29L436.451 247.88C436.421 247.85 436.384 247.825 436.344 247.808C436.304 247.792 436.261 247.783 436.218 247.783C436.174 247.783 436.131 247.792 436.091 247.808C436.051 247.825 436.015 247.85 435.984 247.88C435.923 247.943 435.889 248.027 435.889 248.114C435.889 248.201 435.923 248.285 435.984 248.348L439.376 251.732H435.556C435.469 251.733 435.386 251.768 435.325 251.83C435.263 251.891 435.228 251.974 435.227 252.061C435.227 252.148 435.261 252.232 435.323 252.293C435.385 252.355 435.469 252.39 435.556 252.39H439.376L435.984 255.78C435.923 255.843 435.889 255.927 435.889 256.014C435.889 256.101 435.923 256.185 435.984 256.248C436.047 256.307 436.131 256.34 436.218 256.34C436.304 256.34 436.388 256.307 436.451 256.248L439.837 252.857V256.669C439.837 256.756 439.871 256.84 439.933 256.902C439.995 256.963 440.078 256.998 440.166 256.998C440.253 256.998 440.337 256.963 440.399 256.902C440.46 256.84 440.495 256.756 440.495 256.669V252.857L443.887 256.248C443.95 256.307 444.034 256.34 444.12 256.34C444.207 256.34 444.291 256.307 444.354 256.248C444.415 256.185 444.449 256.101 444.449 256.014C444.449 255.927 444.415 255.843 444.354 255.78L440.963 252.39H444.776C444.863 252.39 444.947 252.355 445.009 252.293C445.07 252.232 445.105 252.148 445.105 252.061C445.1 251.977 445.063 251.898 445.002 251.841C444.941 251.783 444.86 251.751 444.776 251.751Z" fill="#6C63FF"/>
<path d="M458.606 251.751H454.792L458.184 248.368C458.245 248.305 458.279 248.221 458.279 248.134C458.279 248.047 458.245 247.963 458.184 247.9C458.153 247.869 458.117 247.845 458.077 247.828C458.037 247.811 457.994 247.803 457.95 247.803C457.907 247.803 457.864 247.811 457.824 247.828C457.784 247.845 457.747 247.869 457.717 247.9L454.325 251.29V247.472C454.325 247.385 454.29 247.301 454.228 247.239C454.167 247.178 454.083 247.143 453.996 247.143C453.909 247.145 453.826 247.18 453.765 247.241C453.703 247.303 453.668 247.385 453.666 247.472V251.29L450.281 247.88C450.251 247.85 450.214 247.825 450.174 247.808C450.134 247.792 450.091 247.783 450.048 247.783C450.004 247.783 449.961 247.792 449.921 247.808C449.881 247.825 449.844 247.85 449.814 247.88C449.753 247.943 449.719 248.027 449.719 248.114C449.719 248.201 449.753 248.285 449.814 248.348L453.205 251.732H449.386C449.299 251.733 449.216 251.768 449.155 251.83C449.093 251.891 449.058 251.974 449.056 252.061C449.056 252.148 449.091 252.232 449.153 252.293C449.215 252.355 449.298 252.39 449.386 252.39H453.205L449.814 255.78C449.753 255.843 449.719 255.927 449.719 256.014C449.719 256.101 449.753 256.185 449.814 256.248C449.877 256.307 449.961 256.34 450.048 256.34C450.134 256.34 450.218 256.307 450.281 256.248L453.666 252.857V256.669C453.666 256.756 453.701 256.84 453.763 256.902C453.825 256.963 453.908 256.998 453.996 256.998C454.083 256.998 454.167 256.963 454.228 256.902C454.29 256.84 454.325 256.756 454.325 256.669V252.857L457.717 256.248C457.78 256.307 457.863 256.34 457.95 256.34C458.037 256.34 458.121 256.307 458.184 256.248C458.245 256.185 458.279 256.101 458.279 256.014C458.279 255.927 458.245 255.843 458.184 255.78L454.792 252.39H458.606C458.693 252.39 458.777 252.355 458.838 252.293C458.9 252.232 458.935 252.148 458.935 252.061C458.93 251.977 458.893 251.898 458.832 251.841C458.77 251.783 458.69 251.751 458.606 251.751Z" fill="#6C63FF"/>
<path d="M472.436 251.751H468.622L472.014 248.368C472.075 248.305 472.109 248.221 472.109 248.134C472.109 248.047 472.075 247.963 472.014 247.9C471.983 247.869 471.947 247.845 471.907 247.828C471.867 247.811 471.824 247.803 471.78 247.803C471.737 247.803 471.694 247.811 471.654 247.828C471.613 247.845 471.577 247.869 471.546 247.9L468.155 251.29V247.472C468.155 247.385 468.12 247.301 468.058 247.239C467.997 247.178 467.913 247.143 467.826 247.143C467.739 247.145 467.656 247.18 467.595 247.241C467.533 247.303 467.498 247.385 467.496 247.472V251.29L464.111 247.88C464.081 247.85 464.044 247.825 464.004 247.808C463.964 247.792 463.921 247.783 463.877 247.783C463.834 247.783 463.791 247.792 463.751 247.808C463.711 247.825 463.674 247.85 463.644 247.88C463.583 247.943 463.549 248.027 463.549 248.114C463.549 248.201 463.583 248.285 463.644 248.348L467.035 251.732H463.216C463.129 251.733 463.046 251.768 462.985 251.83C462.923 251.891 462.888 251.974 462.886 252.061C462.886 252.148 462.921 252.232 462.983 252.293C463.045 252.355 463.128 252.39 463.216 252.39H467.035L463.644 255.78C463.583 255.843 463.549 255.927 463.549 256.014C463.549 256.101 463.583 256.185 463.644 256.248C463.707 256.307 463.791 256.34 463.877 256.34C463.964 256.34 464.048 256.307 464.111 256.248L467.496 252.857V256.669C467.496 256.756 467.531 256.84 467.593 256.902C467.654 256.963 467.738 256.998 467.826 256.998C467.913 256.998 467.997 256.963 468.058 256.902C468.12 256.84 468.155 256.756 468.155 256.669V252.857L471.546 256.248C471.61 256.307 471.693 256.34 471.78 256.34C471.867 256.34 471.951 256.307 472.014 256.248C472.075 256.185 472.109 256.101 472.109 256.014C472.109 255.927 472.075 255.843 472.014 255.78L468.622 252.39H472.436C472.523 252.39 472.607 252.355 472.668 252.293C472.73 252.232 472.765 252.148 472.765 252.061C472.76 251.977 472.723 251.898 472.662 251.841C472.6 251.783 472.52 251.751 472.436 251.751Z" fill="#6C63FF"/>
<path d="M486.265 251.751H482.452L485.844 248.368C485.905 248.305 485.939 248.221 485.939 248.134C485.939 248.047 485.905 247.963 485.844 247.9C485.813 247.869 485.777 247.845 485.737 247.828C485.697 247.811 485.654 247.803 485.61 247.803C485.567 247.803 485.524 247.811 485.483 247.828C485.443 247.845 485.407 247.869 485.376 247.9L481.985 251.29V247.472C481.985 247.385 481.95 247.301 481.888 247.239C481.827 247.178 481.743 247.143 481.655 247.143C481.569 247.145 481.486 247.18 481.424 247.241C481.363 247.303 481.328 247.385 481.326 247.472V251.29L477.941 247.88C477.911 247.85 477.874 247.825 477.834 247.808C477.794 247.792 477.751 247.783 477.707 247.783C477.664 247.783 477.621 247.792 477.581 247.808C477.541 247.825 477.504 247.85 477.474 247.88C477.413 247.943 477.379 248.027 477.379 248.114C477.379 248.201 477.413 248.285 477.474 248.348L480.865 251.732H477.045C476.959 251.733 476.876 251.768 476.814 251.83C476.753 251.891 476.718 251.974 476.716 252.061C476.716 252.148 476.751 252.232 476.813 252.293C476.874 252.355 476.958 252.39 477.045 252.39H480.865L477.474 255.78C477.413 255.843 477.379 255.927 477.379 256.014C477.379 256.101 477.413 256.185 477.474 256.248C477.537 256.307 477.62 256.34 477.707 256.34C477.794 256.34 477.878 256.307 477.941 256.248L481.326 252.857V256.669C481.326 256.756 481.361 256.84 481.423 256.902C481.484 256.963 481.568 256.998 481.655 256.998C481.743 256.998 481.827 256.963 481.888 256.902C481.95 256.84 481.985 256.756 481.985 256.669V252.857L485.376 256.248C485.44 256.307 485.523 256.34 485.61 256.34C485.697 256.34 485.78 256.307 485.844 256.248C485.905 256.185 485.939 256.101 485.939 256.014C485.939 255.927 485.905 255.843 485.844 255.78L482.452 252.39H486.265C486.353 252.39 486.436 252.355 486.498 252.293C486.56 252.232 486.595 252.148 486.595 252.061C486.59 251.977 486.553 251.898 486.492 251.841C486.43 251.783 486.349 251.751 486.265 251.751Z" fill="#6C63FF"/>
<path d="M500.095 251.751H496.282L499.674 248.368C499.735 248.305 499.768 248.221 499.768 248.134C499.768 248.047 499.735 247.963 499.674 247.9C499.643 247.869 499.607 247.845 499.567 247.828C499.527 247.811 499.483 247.803 499.44 247.803C499.397 247.803 499.353 247.811 499.313 247.828C499.273 247.845 499.237 247.869 499.206 247.9L495.815 251.29V247.472C495.815 247.385 495.78 247.301 495.718 247.239C495.656 247.178 495.573 247.143 495.485 247.143C495.399 247.145 495.316 247.18 495.254 247.241C495.193 247.303 495.158 247.385 495.156 247.472V251.29L491.771 247.88C491.74 247.85 491.704 247.825 491.664 247.808C491.624 247.792 491.581 247.783 491.537 247.783C491.494 247.783 491.451 247.792 491.411 247.808C491.37 247.825 491.334 247.85 491.303 247.88C491.243 247.943 491.209 248.027 491.209 248.114C491.209 248.201 491.243 248.285 491.303 248.348L494.695 251.732H490.875C490.789 251.733 490.706 251.768 490.644 251.83C490.583 251.891 490.548 251.974 490.546 252.061C490.546 252.148 490.581 252.232 490.643 252.293C490.704 252.355 490.788 252.39 490.875 252.39H494.695L491.303 255.78C491.243 255.843 491.209 255.927 491.209 256.014C491.209 256.101 491.243 256.185 491.303 256.248C491.367 256.307 491.45 256.34 491.537 256.34C491.624 256.34 491.708 256.307 491.771 256.248L495.156 252.857V256.669C495.156 256.756 495.191 256.84 495.252 256.902C495.314 256.963 495.398 256.998 495.485 256.998C495.573 256.998 495.656 256.963 495.718 256.902C495.78 256.84 495.815 256.756 495.815 256.669V252.857L499.206 256.248C499.27 256.307 499.353 256.34 499.44 256.34C499.527 256.34 499.61 256.307 499.674 256.248C499.735 256.185 499.768 256.101 499.768 256.014C499.768 255.927 499.735 255.843 499.674 255.78L496.282 252.39H500.095C500.183 252.39 500.266 252.355 500.328 252.293C500.39 252.232 500.425 252.148 500.425 252.061C500.42 251.977 500.383 251.898 500.321 251.841C500.26 251.783 500.179 251.751 500.095 251.751Z" fill="#6C63FF"/>
<path d="M606.118 331.835C606.099 331.039 606 330.247 605.822 329.472C605.229 327.246 603.892 324.554 601.692 323.883C599.421 323.187 597.228 322.261 595.146 321.118C594.751 314.061 596.371 306.839 594.606 299.999C593.948 297.497 592.861 295.101 592.571 292.54C592.209 289.354 593.078 285.957 591.807 283.021C590.806 280.704 588.607 279.071 586.242 278.215C583.878 277.36 581.329 277.129 578.82 276.899C575.659 276.642 565.425 275.431 561.856 278.255C561.609 278.446 561.388 278.667 561.197 278.913C561.118 279.022 561.048 279.136 560.986 279.256L560.953 279.308C560.882 279.445 560.822 279.589 560.776 279.736C560.726 279.898 560.688 280.063 560.664 280.23C560.664 280.283 560.664 280.335 560.664 280.388C560.664 280.441 560.664 280.618 560.664 280.737V280.915C560.664 281.033 560.664 281.152 560.664 281.277C560.664 281.402 560.664 281.369 560.664 281.415C560.71 282.007 560.795 282.6 560.795 283.186C560.802 283.477 560.776 283.769 560.716 284.055C560.497 284.831 560.125 285.556 559.623 286.188L559.505 286.359C559.432 286.464 559.36 286.563 559.294 286.668C559.228 286.774 559.175 286.852 559.123 286.945C559.07 287.037 559.017 287.096 558.971 287.182C558.908 287.29 558.85 287.402 558.8 287.517C558.8 287.583 558.727 287.642 558.701 287.708C558.619 287.886 558.553 288.071 558.504 288.261C558.349 288.833 558.336 289.434 558.464 290.012C558.642 290.751 558.947 291.453 559.366 292.086C559.531 292.356 559.709 292.619 559.893 292.883L560.354 293.508C560.268 294.119 560.222 294.735 560.216 295.351C560.216 297.413 560.685 299.447 561.586 301.301C562.487 303.156 563.797 304.781 565.418 306.055C565.679 308.836 565.651 311.635 565.333 314.409C565.274 314.989 565.201 315.575 565.122 316.154C565.043 316.733 564.984 317.115 564.905 317.596C563.941 317.734 562.959 317.659 562.027 317.378C561.597 317.187 561.157 317.017 560.71 316.871C558.793 316.391 556.837 318.3 554.941 317.721C554.941 317.813 554.888 317.898 554.855 317.984C554.459 317.738 554.004 317.604 553.538 317.596C552.412 317.543 551.496 316.727 550.68 315.956L548.171 313.593C548.007 313.448 547.861 313.285 547.736 313.106C547.601 312.85 547.499 312.578 547.433 312.296C547.012 310.934 545.991 309.847 545.003 308.814C544.816 308.578 544.567 308.398 544.285 308.294C544.176 308.277 544.065 308.277 543.956 308.294C543.889 308.202 543.816 308.114 543.739 308.03C543.568 307.835 543.385 307.65 543.192 307.477C541.993 306.371 541.875 305.423 540.834 304.186C539.927 303.005 539.104 301.763 538.371 300.466C538.286 299.775 538.167 299.064 538.022 298.347C537.69 296.704 537.207 295.095 536.58 293.541L535.263 290.625L535.111 290.776C534.156 289.354 533.136 288.577 532.22 288.762C530.686 289.078 529.928 292.053 530.172 295.944L530.699 299.894C530.699 299.992 530.745 300.091 530.771 300.19C530.677 300.658 530.628 301.134 530.626 301.612C530.626 302.165 531.14 302.573 531.41 303.067C531.842 303.736 532.071 304.515 532.069 305.312C532.036 305.595 531.95 305.865 531.937 306.141C531.973 306.76 532.188 307.354 532.556 307.853L535.849 313.382L536.507 314.541L536.547 314.594C536.755 314.998 537.058 315.346 537.429 315.608C537.558 316.992 537.926 318.344 538.516 319.604C538.628 319.854 538.753 320.091 538.885 320.328C539.77 321.782 540.813 323.136 541.993 324.363L543.561 326.121C545.108 327.846 546.656 329.577 548.335 331.17C548.936 331.809 549.663 332.318 550.469 332.664C550.864 332.822 551.294 332.873 551.715 332.812C552.135 332.751 552.533 332.579 552.866 332.315C552.866 333.132 552.866 333.948 552.866 334.764C553.111 334.779 553.347 334.859 553.55 334.996C553.753 335.133 553.916 335.321 554.022 335.542C554.128 335.763 554.174 336.008 554.153 336.252C554.133 336.496 554.048 336.73 553.907 336.93C552.524 340.479 551.128 344.06 549.033 347.239C550.512 348.114 551.882 349.159 553.116 350.353C553.918 351.241 554.63 352.204 555.244 353.23C555.303 353.717 555.349 354.198 555.375 354.678C555.863 362.525 552.827 370.313 550.107 377.792C549.323 379.911 548.467 382.13 548.533 384.335C548.017 384.653 547.524 385.008 547.058 385.395C547.598 386.804 547.387 388.061 547.328 389.569C547.308 390.473 547.123 391.365 546.781 392.202C546.495 392.782 546.178 393.347 545.833 393.894C544.127 396.902 543.752 400.477 543.409 403.913C543.205 405.987 544.009 408.522 543.067 410.378C541.44 413.564 539.998 416.961 539.774 420.503C539.766 421.3 539.664 422.093 539.471 422.866C539.267 423.525 538.905 424.084 538.72 424.729C538.53 425.594 538.486 426.484 538.589 427.363C538.714 430.518 538.245 433.669 537.206 436.651C536.382 439.001 535.473 441.516 536.119 443.932C534.53 445.601 533.549 447.755 533.333 450.048C533.316 450.635 533.246 451.219 533.122 451.792C532.921 452.379 532.656 452.942 532.332 453.471C531.006 455.885 530.386 458.622 530.541 461.371C528.565 464.05 527.577 467.355 526.991 470.64C526.405 473.925 526.148 477.269 525.397 480.515C524.396 484.807 522.585 489.145 522.23 493.543C520.096 494.905 519.174 497.545 518.766 500.04C518.357 502.535 518.292 505.155 517.244 507.459C516.704 508.657 515.927 509.73 515.414 510.955C515.053 511.93 514.789 512.937 514.623 513.963C514.307 515.57 514.031 517.36 514.419 518.901C513.861 519.492 513.209 519.988 512.49 520.369C512.595 519.961 512.681 519.552 512.753 519.138C511.054 520.678 507.972 520.138 506.615 521.988C506.208 522.585 506.049 523.316 506.172 524.027C506.295 524.739 506.69 525.375 507.274 525.8C507.698 526.058 508.157 526.256 508.637 526.386C511.93 527.439 515.315 528.499 518.7 527.939C519.1 527.896 519.487 527.773 519.839 527.577C520.279 527.253 520.642 526.835 520.899 526.353C521.407 525.55 521.914 524.747 522.414 523.943C523.627 524.305 524.861 524.593 526.109 524.806C526.234 525.859 526.326 526.912 526.372 527.966C527.031 528.097 527.913 528.137 528.223 527.525C528.317 527.293 528.355 527.043 528.335 526.794C528.335 526.327 528.401 525.708 528.44 525.076H528.572C530.581 525.157 532.58 524.753 534.4 523.897C533.695 518.065 536.02 512.364 538.035 506.847C540.163 501.041 541.987 495.129 543.824 489.217C545.141 485.057 546.597 481.028 547.887 476.861C549.512 471.594 551.143 466.328 552.781 461.062C553.492 458.744 554.21 456.453 555.026 454.149C556.745 449.487 558.785 444.949 561.131 440.568C561.79 439.324 562.448 438.093 562.988 436.803C563.647 435.229 564.115 433.584 564.641 431.958C565.789 428.621 567.172 425.37 568.777 422.228C568.823 422.142 568.856 422.063 568.902 421.984C569.436 424.163 569.969 426.375 570.325 428.567C570.806 431.255 570.844 434.004 570.437 436.704C570.121 438.541 569.521 440.358 569.594 442.221C569.693 444.795 571.069 447.132 571.747 449.613C572.185 451.471 572.432 453.368 572.485 455.275C572.669 458.237 574.276 461.562 573.143 464.307C569.62 473.003 571.326 482.825 569.317 491.956C568.283 496.643 565.116 501.047 565.366 505.84C565.541 509.241 565.84 512.634 566.261 516.017C566.363 517.085 566.641 518.128 567.085 519.105C567.347 519.619 567.649 520.112 567.987 520.579C567.697 520.691 567.453 520.988 567.243 521.613C566.703 523.259 567.243 525.3 568.705 526.221C569.3 526.54 569.943 526.762 570.608 526.88C571.503 527.134 572.43 527.262 573.361 527.261C573.65 527.246 573.939 527.21 574.224 527.156C575.241 527.584 576.281 527.957 577.339 528.275C577.339 528.545 577.391 528.815 577.424 529.085C577.426 529.226 577.457 529.365 577.516 529.493C577.575 529.621 577.661 529.736 577.767 529.829C577.931 529.905 578.113 529.937 578.293 529.921H581.869C581.869 529.625 581.869 529.322 581.869 529.026C582.279 529.068 582.692 529.025 583.084 528.898C583.475 528.771 583.835 528.563 584.142 528.288C584.458 527.885 584.683 527.418 584.8 526.919C585.775 523.614 586.743 520.307 587.704 516.998C588.857 513.341 589.337 509.504 589.12 505.675C587.849 493.543 590.642 481.37 589.733 469.205C589.186 461.893 589.562 454.541 590.852 447.323C591.149 445.69 591.511 444.031 591.643 442.405C591.932 439.337 591.577 436.237 591.794 433.189C591.867 432.122 592.011 431.062 592.143 430.002C593.045 423.424 593.518 416.794 593.559 410.154C593.539 407.954 593.403 405.757 593.151 403.571C593.837 403.396 594.461 403.031 594.949 402.518C595.535 401.754 595.383 400.681 595.377 399.707C595.377 397.376 596.358 395.178 597.148 392.979C598.162 389.946 598.994 386.855 599.638 383.723C600.318 381.199 600.69 378.601 600.744 375.988C600.744 375.725 600.731 375.461 600.704 375.198C600.953 375.026 601.16 374.801 601.31 374.54C601.482 374.154 601.589 373.742 601.626 373.322C601.864 371.643 602.107 369.958 602.344 368.272C602.52 367.066 602.693 365.861 602.865 364.658L604.959 350.05C605.137 348.78 605.321 347.516 605.499 346.252L606.045 342.473C606.105 342.026 606.171 341.578 606.217 341.157C607.824 338.471 606.289 334.89 606.118 331.835ZM588.646 386.527C587.869 384.684 587.145 382.795 587.329 380.807H587.257C587.43 380.195 587.4 379.543 587.171 378.95C586.967 378.47 586.611 378.062 586.394 377.581C586.16 376.994 586.04 376.369 586.038 375.738C585.875 371.734 586.191 367.725 586.98 363.796C587.066 363.335 587.158 362.868 587.243 362.407C587.52 362.247 587.772 362.05 587.994 361.821C588.341 361.426 588.627 360.983 588.844 360.504C589.588 359.01 590.266 357.489 590.892 355.942C591.096 355.442 591.392 354.863 591.899 354.738C591.794 358.589 592.189 362.519 590.622 365.995C590.324 366.555 590.103 367.153 589.963 367.772C589.818 368.753 590.227 369.747 590.082 370.721C590.009 371.228 589.792 371.696 589.706 372.196C589.641 372.442 589.643 372.7 589.71 372.945C589.777 373.19 589.907 373.413 590.088 373.592C590.176 373.653 590.271 373.701 590.372 373.736C590.332 374 590.299 374.27 590.273 374.526C590.22 375.066 590.194 375.573 590.161 375.889C590.009 377.499 589.95 379.117 589.983 380.734C589.983 382.479 590.049 384.223 590.023 386.001C590.047 386.511 589.962 387.021 589.772 387.495C589.642 387.74 589.473 387.962 589.272 388.153C589.081 387.561 588.87 387.041 588.646 386.527Z" fill="url(#paint0_linear)"/>
<path d="M536.66 310.143C538.67 309.732 539.354 304.787 538.188 299.099C537.022 293.411 534.448 289.133 532.438 289.545C530.428 289.956 529.745 294.901 530.911 300.589C532.076 306.277 534.651 310.555 536.66 310.143Z" fill="#FBBEBE"/>
<path d="M567.348 521.738C566.808 523.371 567.348 525.412 568.81 526.3C569.402 526.616 570.04 526.838 570.7 526.959C571.594 527.211 572.518 527.337 573.446 527.334C574.586 527.281 575.679 526.834 576.818 526.676C576.95 526.643 577.089 526.661 577.207 526.728C577.264 526.789 577.307 526.863 577.332 526.942C577.357 527.022 577.364 527.106 577.352 527.189C577.364 527.836 577.412 528.483 577.497 529.125C577.498 529.266 577.529 529.405 577.588 529.533C577.647 529.662 577.732 529.776 577.839 529.868C578.003 529.945 578.185 529.977 578.366 529.961H581.935C582.016 526.826 581.673 523.695 580.915 520.652C580.865 520.419 580.776 520.197 580.651 519.994C580.348 519.662 579.95 519.432 579.512 519.335C578.639 518.973 577.696 518.808 576.752 518.855C575.6 519.006 574.638 519.75 573.657 520.369C572.676 520.988 571.339 521.534 570.147 521.218C568.955 520.902 567.961 519.908 567.348 521.738Z" fill="#3F3D56"/>
<path d="M514.939 518.848C513.936 519.922 512.705 520.759 511.337 521.297L510.731 521.587C510.647 521.619 510.576 521.676 510.527 521.751C510.515 521.803 510.515 521.856 510.527 521.907C510.538 521.958 510.561 522.006 510.593 522.048C511.097 522.827 511.842 523.421 512.714 523.738C513.587 524.055 514.539 524.079 515.427 523.805C515.819 523.707 516.182 523.518 516.487 523.252C516.989 522.657 517.277 521.911 517.304 521.133C517.503 520.33 517.469 519.487 517.205 518.703C516.289 516.643 515.954 517.578 514.939 518.848Z" fill="#FBBEBE"/>
<path d="M528.624 526.958C528.645 527.207 528.606 527.458 528.512 527.689C528.203 528.295 527.34 528.262 526.668 528.13C526.567 525.897 526.296 523.674 525.858 521.481C524.581 521.422 523.659 522.633 522.974 523.72L521.209 526.517C520.954 526.999 520.594 527.417 520.155 527.742C519.802 527.935 519.416 528.058 519.016 528.104C515.644 528.663 512.239 527.604 508.986 526.55C508.507 526.422 508.048 526.227 507.623 525.971C507.042 525.545 506.649 524.91 506.527 524.201C506.404 523.492 506.561 522.762 506.964 522.166C508.327 520.323 511.39 520.849 513.089 519.322C512.912 520.397 512.62 521.449 512.22 522.462C514.492 522.12 516.019 520.04 517.85 518.651C518.31 518.26 518.864 517.997 519.457 517.887C519.901 517.85 520.348 517.897 520.774 518.025C522.885 518.557 524.86 519.528 526.57 520.876C527.261 521.422 528.341 522.192 528.644 523.035C528.967 524.042 528.624 525.885 528.624 526.958Z" fill="#3F3D56"/>
<path d="M573.927 309.755C581.442 309.755 587.533 303.666 587.533 296.154C587.533 288.643 581.442 282.554 573.927 282.554C566.413 282.554 560.321 288.643 560.321 296.154C560.321 303.666 566.413 309.755 573.927 309.755Z" fill="#FBBEBE"/>
<path d="M600.731 376.455C600.676 379.055 600.307 381.639 599.631 384.151C598.987 387.27 598.156 390.348 597.142 393.367C596.358 395.559 595.377 397.758 595.383 400.082C595.383 401.05 595.541 402.123 594.949 402.886C594.421 403.423 593.755 403.803 593.026 403.986C592.661 404.082 592.325 404.263 592.044 404.514C591.762 404.764 591.544 405.077 591.405 405.428C590.787 404.504 590.324 403.486 590.036 402.412C588.855 398.796 587.757 395.16 586.743 391.504C586.65 391.294 586.61 391.064 586.626 390.835C586.642 390.605 586.714 390.383 586.835 390.188C587.002 390.042 587.197 389.933 587.408 389.865C588.083 389.59 588.701 389.193 589.232 388.693C589.481 388.472 589.687 388.207 589.838 387.91C590.029 387.438 590.117 386.931 590.095 386.422C590.095 384.678 590.095 382.94 590.049 381.195C590.021 379.584 590.083 377.973 590.233 376.37C590.233 376.054 590.293 375.547 590.345 375.007C590.444 373.973 590.642 372.775 591.201 372.374C592.038 371.814 594.54 372.565 595.489 372.696C597.122 372.92 598.781 373.183 600.375 373.493C600.607 374.463 600.726 375.457 600.731 376.455Z" fill="#3F3D56"/>
<path d="M545.793 311.381C545.266 312.435 544.002 312.942 543.027 313.606L539.688 315.897C539.465 316.098 539.204 316.252 538.92 316.349C538.636 316.447 538.335 316.485 538.035 316.463C537.764 316.363 537.515 316.21 537.303 316.012C537.092 315.814 536.922 315.576 536.804 315.311C536.806 315.294 536.806 315.276 536.804 315.259L536.112 314.1L532.819 308.584C532.453 308.09 532.24 307.499 532.207 306.885C532.207 306.602 532.306 306.339 532.332 306.056C532.341 305.261 532.112 304.481 531.674 303.817C531.41 303.324 530.883 302.915 530.896 302.362C530.871 301.636 530.997 300.912 531.265 300.236C531.611 299.611 532.106 299.082 532.708 298.696C533.017 298.472 533.333 298.261 533.662 298.037C533.837 297.918 534.031 297.829 534.235 297.774C534.782 297.662 535.322 298.116 535.875 298.136C538.253 299.729 539.168 302.744 541.038 304.917C542.092 306.154 542.197 307.102 543.389 308.208C543.58 308.379 543.765 308.564 543.943 308.755C544.178 309.012 544.378 309.3 544.535 309.61C544.753 310.177 546.063 310.842 545.793 311.381Z" fill="#3F3D56"/>
<path d="M569.146 309.762C570.127 311.836 570.891 314.113 570.608 316.391C570.55 317.008 570.354 317.604 570.035 318.136C569.087 319.591 567.098 319.854 565.366 319.939C565.001 319.909 564.634 319.951 564.285 320.064C563.937 320.177 563.615 320.359 563.337 320.598C563.106 320.934 562.993 321.337 563.015 321.745C563.038 322.152 563.195 322.541 563.463 322.849C564.019 323.443 564.71 323.895 565.478 324.166C568.217 325.371 571.174 326.365 574.151 326.088C575.534 325.956 576.878 325.555 578.254 325.351C579.754 325.188 581.262 325.105 582.772 325.101C584.563 325.035 586.348 324.857 588.132 324.679L592.861 324.212C593.119 324.216 593.37 324.124 593.566 323.955C593.915 323.547 593.467 322.948 593.032 322.639C590.523 320.782 587.329 319.505 585.9 316.714C585.241 315.397 585.037 313.83 584.55 312.408C584.062 310.986 583.285 309.703 582.982 308.254C582.821 306.984 582.748 305.704 582.765 304.423C582.782 303.132 582.311 301.881 581.448 300.921C580.506 300.045 579.143 299.821 577.865 299.769C574.717 299.631 571.365 300.381 569.133 302.6C568.533 303.199 568.02 303.916 567.401 304.456C566.782 304.996 565.939 305.154 566.347 305.865C566.755 306.576 567.559 307.017 567.993 307.642C568.433 308.317 568.819 309.026 569.146 309.762Z" fill="#FBBEBE"/>
<path d="M595.969 328.912C595.139 333.981 593.788 338.951 591.939 343.744C591.009 345.908 590.217 348.129 589.568 350.393C589.061 352.434 589.16 354.619 588.692 356.667C588.113 359.214 587.533 361.768 587.066 364.336C586.281 368.256 585.967 372.256 586.13 376.251C586.132 376.88 586.253 377.504 586.486 378.088C586.703 378.562 587.052 378.97 587.257 379.457C587.409 379.885 587.472 380.34 587.44 380.793C587.408 381.246 587.283 381.688 587.072 382.09C586.734 382.844 586.276 383.538 585.715 384.144C579.578 385.975 573.012 385.375 566.617 385.764C560.723 386.119 554.763 387.331 548.954 386.323C548.296 383.69 549.396 380.932 550.337 378.364C553.07 370.906 556.093 363.138 555.606 355.324C555.555 354.412 555.451 353.504 555.296 352.605C554.341 347.068 555.382 341.334 557.048 335.969C558.082 332.625 558.036 329.064 557.799 325.581C557.682 324.45 557.666 323.311 557.753 322.178C557.848 321.02 558.278 319.915 558.991 318.998C558.991 318.952 559.05 318.906 559.083 318.86C559.116 318.814 559.373 318.82 559.577 318.86C559.629 318.882 559.685 318.893 559.742 318.893C559.798 318.893 559.854 318.882 559.906 318.86L559.979 318.814C560.007 318.794 560.04 318.783 560.074 318.783C560.108 318.783 560.142 318.794 560.17 318.814C560.321 318.906 560.407 319.222 560.736 319.281C561.223 319.355 561.713 319.401 562.205 319.419C562.796 319.437 563.384 319.521 563.956 319.669H564.035C564.892 319.814 565.771 319.739 566.591 319.452C567.136 319.316 567.663 319.112 568.158 318.847C568.303 318.689 569.212 318.544 569.396 318.432C569.996 318.07 569.864 316.371 569.989 315.673C570.058 314.974 570.224 314.287 570.483 313.633C570.783 313.15 571.197 312.748 571.688 312.462C572.179 312.177 572.733 312.016 573.302 311.994C574.435 311.967 575.569 312.068 576.68 312.296C579.136 312.645 581.652 312.586 584.063 313.152C585.274 313.435 586.598 313.863 587.711 313.31C588.014 313.383 588.06 313.646 588.06 313.968C588.032 314.275 587.97 314.577 587.876 314.87C587.454 316.687 588.883 318.359 590.2 319.676C590.757 320.297 591.414 320.82 592.143 321.223C592.802 321.526 593.46 321.651 594.119 321.98C594.652 322.265 595.105 322.679 595.436 323.185C595.816 323.765 596.071 324.417 596.187 325.1C596.328 326.374 596.255 327.663 595.969 328.912Z" fill="#3F3D56"/>
<path opacity="0.1" d="M595.969 328.912C595.139 333.981 593.788 338.951 591.939 343.744C591.009 345.908 590.217 348.129 589.568 350.393C589.061 352.434 589.16 354.619 588.692 356.667C588.113 359.214 587.533 361.769 587.066 364.336C586.927 364.415 586.782 364.487 586.637 364.553C585.818 364.944 584.95 365.223 584.056 365.383C582.45 365.577 580.825 365.524 579.235 365.225L569.837 363.967C566.084 363.46 562.086 362.848 559.3 360.307C557.753 358.911 556.739 357.068 555.626 355.291C555.574 354.379 555.471 353.472 555.316 352.572C554.361 347.036 555.402 341.302 557.068 335.936C558.102 332.592 558.056 329.031 557.819 325.548C557.701 324.417 557.686 323.278 557.773 322.145C557.868 320.987 558.298 319.882 559.011 318.965C559.203 318.909 559.399 318.865 559.597 318.833C559.729 318.807 559.863 318.789 559.998 318.781H560.189C560.411 318.782 560.632 318.808 560.848 318.86C561.297 319.003 561.737 319.172 562.165 319.367H562.244C562.809 319.553 563.402 319.637 563.996 319.617C564.865 319.617 565.761 319.479 566.63 319.419C567.704 319.252 568.803 319.449 569.752 319.979C570.364 320.471 570.945 321.001 571.49 321.565C572.149 322.083 572.891 322.486 573.683 322.757C579.352 324.92 585.642 324.788 591.214 322.388C591.75 322.084 592.357 321.929 592.973 321.941C593.428 322.03 593.858 322.214 594.237 322.48C594.632 322.711 595.021 322.935 595.423 323.139C595.802 323.719 596.058 324.371 596.173 325.054C596.324 326.343 596.255 327.647 595.969 328.912Z" fill="black"/>
<path d="M601.706 324.554C599.083 323.754 596.563 322.649 594.198 321.263C593.818 320.998 593.388 320.814 592.933 320.723C592.316 320.716 591.708 320.87 591.168 321.171C585.598 323.57 579.311 323.702 573.644 321.539C572.852 321.265 572.112 320.863 571.451 320.348C570.904 319.785 570.323 319.255 569.712 318.761C567.546 317.359 564.549 319.005 562.126 318.103C561.696 317.911 561.256 317.742 560.809 317.596C558.892 317.115 556.943 319.025 555.059 318.445C554.359 320.349 553.84 322.315 553.512 324.317C553.244 326.616 553.101 328.928 553.084 331.243C553.084 332.632 553.018 334.021 553.084 335.41C553.316 335.448 553.537 335.534 553.735 335.662C553.932 335.79 554.1 335.957 554.229 336.154C554.316 336.383 554.351 336.629 554.333 336.873C554.315 337.118 554.244 337.355 554.124 337.569C552.748 341.104 551.352 344.679 549.264 347.845C550.735 348.722 552.101 349.764 553.334 350.953C555.639 353.388 556.772 356.805 559.261 359.056C562.066 361.591 566.064 362.21 569.798 362.71L579.196 363.967C580.787 364.265 582.415 364.321 584.023 364.132C584.915 363.969 585.781 363.688 586.598 363.296C587.132 363.073 587.619 362.751 588.034 362.348C588.381 361.954 588.667 361.51 588.883 361.031C589.627 359.544 590.306 358.023 590.931 356.482C591.149 355.936 591.478 355.297 592.071 355.251C595.561 352.105 598.854 348.879 602.344 345.732C603.747 344.57 605.005 343.244 606.092 341.782C607.824 339.222 606.25 335.594 606.092 332.5C606.072 331.709 605.973 330.921 605.795 330.15C605.229 327.905 603.899 325.219 601.706 324.554Z" fill="#6C63FF"/>
<path opacity="0.1" d="M545.793 311.381C545.266 312.435 544.002 312.942 543.027 313.607L539.688 315.897C539.465 316.098 539.204 316.252 538.92 316.349C538.636 316.447 538.335 316.486 538.035 316.464C537.764 316.363 537.515 316.21 537.303 316.012C537.092 315.814 536.922 315.576 536.804 315.312C536.804 315.16 536.804 314.996 536.804 314.838C536.778 314.305 536.85 313.772 537.015 313.264C537.341 312.52 537.848 311.868 538.49 311.368C539.73 310.195 541.204 309.297 542.817 308.735C543.068 308.637 543.341 308.61 543.607 308.656C543.709 308.683 543.807 308.725 543.897 308.781C544.132 309.038 544.332 309.326 544.489 309.637C544.753 310.177 546.063 310.842 545.793 311.381Z" fill="black"/>
<path d="M553.656 318.32C552.537 318.267 551.621 317.458 550.805 316.688L548.309 314.37C548.142 314.229 547.995 314.065 547.874 313.883C547.739 313.627 547.638 313.355 547.571 313.073C547.042 311.744 546.213 310.554 545.148 309.597C544.962 309.362 544.713 309.184 544.43 309.084C544.162 309.035 543.886 309.062 543.633 309.163C542.02 309.724 540.545 310.622 539.306 311.796C538.665 312.297 538.158 312.948 537.831 313.692C537.665 314.199 537.594 314.733 537.62 315.266C537.636 317.005 538.027 318.72 538.766 320.295C538.878 320.539 539.003 320.782 539.135 321.019C540.014 322.471 541.052 323.82 542.23 325.041L543.798 326.793C545.339 328.517 546.88 330.242 548.552 331.829C549.152 332.468 549.879 332.975 550.686 333.316C551.092 333.482 551.535 333.532 551.967 333.463C552.399 333.393 552.803 333.206 553.136 332.921C553.452 332.556 553.689 332.131 553.834 331.671C554.848 329.037 555.81 326.299 555.869 323.462C555.883 322.325 555.835 321.189 555.724 320.058C555.626 318.86 554.776 318.393 553.656 318.32Z" fill="#6C63FF"/>
<path d="M593.566 410.483C593.527 417.105 593.057 423.718 592.156 430.279C592.025 431.339 591.88 432.399 591.807 433.458C591.59 436.533 591.946 439.62 591.656 442.675C591.504 444.327 591.162 445.966 590.872 447.579C589.585 454.778 589.209 462.11 589.752 469.402C590.661 481.535 587.876 493.674 589.14 505.774C589.293 508.127 589.163 510.49 588.751 512.811C588.516 514.252 588.175 515.673 587.731 517.064C586.769 520.36 585.803 523.652 584.833 526.939C584.719 527.439 584.494 527.907 584.174 528.308C583.839 528.598 583.444 528.814 583.019 528.94C582.593 529.066 582.145 529.1 581.705 529.039C577.905 528.92 574.329 527.281 570.878 525.681C570.481 525.525 570.114 525.302 569.791 525.023C569.074 524.279 569.133 523.107 568.817 522.126C568.501 521.146 567.644 520.224 567.157 519.217C566.756 518.264 566.514 517.252 566.439 516.221C566 512.851 565.702 509.467 565.544 506.07C565.293 501.291 568.454 496.893 569.495 492.246C571.471 483.108 569.798 473.313 573.308 464.643C574.414 461.904 572.808 458.586 572.65 455.637C572.593 453.734 572.346 451.842 571.912 449.989C571.253 447.513 569.864 445.183 569.765 442.615C569.693 440.759 570.292 438.949 570.601 437.119C571.012 434.425 570.974 431.683 570.489 429.002C570.14 426.79 569.607 424.578 569.074 422.418L568.955 422.662C567.35 425.797 565.971 429.042 564.826 432.372C564.299 433.985 563.838 435.631 563.179 437.198C562.639 438.514 561.974 439.719 561.322 440.957C558.984 445.321 556.948 449.841 555.23 454.485C554.414 456.763 553.696 459.093 552.985 461.377L548.105 477.177C546.788 481.331 545.345 485.347 544.055 489.494C542.23 495.419 540.406 501.291 538.286 507.084C536.31 512.581 533.959 518.275 534.663 524.082C532.848 524.935 530.853 525.339 528.848 525.26C525.454 524.96 522.124 524.152 518.97 522.864C517.712 522.396 516.408 521.87 515.558 520.836C514.096 519.052 514.459 516.439 514.9 514.167C515.066 513.144 515.331 512.138 515.69 511.166C516.191 509.954 517.007 508.881 517.521 507.683C518.555 505.386 518.621 502.785 519.029 500.29C519.437 497.795 520.346 495.162 522.48 493.806C522.842 489.421 524.647 485.096 525.641 480.811C526.392 477.565 526.642 474.228 527.235 470.936C527.828 467.645 528.782 464.353 530.771 461.687C530.614 458.938 531.235 456.2 532.563 453.787C532.883 453.257 533.146 452.694 533.346 452.108C533.469 451.537 533.54 450.955 533.557 450.37C533.775 448.083 534.753 445.934 536.336 444.268C535.678 441.865 536.593 439.357 537.416 437.026C538.453 434.053 538.922 430.911 538.799 427.764C538.697 426.885 538.739 425.996 538.924 425.131C539.109 424.472 539.471 423.913 539.682 423.281C539.87 422.507 539.969 421.714 539.978 420.918C540.235 417.356 541.677 413.999 543.271 410.819C544.219 408.963 543.416 406.441 543.613 404.374C543.956 400.938 544.331 397.383 546.037 394.388C546.353 393.821 546.695 393.282 546.979 392.696C547.322 391.859 547.507 390.966 547.525 390.062C547.584 388.555 547.795 387.304 547.255 385.902C550.779 382.972 555.586 382.15 560.17 381.952C564.753 381.755 569.39 382.169 573.874 381.195C575.192 380.899 576.509 380.491 577.898 380.293C581.053 379.832 584.253 380.55 587.368 381.261C587.151 383.236 587.876 385.132 588.686 386.968C591.848 394.408 593.507 402.4 593.566 410.483Z" fill="#33313F"/>
<path opacity="0.1" d="M578.056 411.991L570.489 429.002C570.14 426.79 569.607 424.578 569.074 422.419L568.955 422.662V422.307L573.078 413.242L578.056 411.991Z" fill="black"/>
<path opacity="0.1" d="M600.731 376.455C600.294 376.782 599.773 376.976 599.229 377.015C598.395 377.044 597.562 376.931 596.766 376.679L590.839 375.198C590.653 375.152 590.472 375.088 590.299 375.007C590.398 373.973 590.595 372.775 591.155 372.374C591.992 371.814 594.494 372.565 595.442 372.696C597.076 372.92 598.735 373.183 600.329 373.493C600.576 374.462 600.711 375.456 600.731 376.455Z" fill="black"/>
<path d="M605.742 337.286C605.868 337.832 606.045 338.372 606.151 338.925C606.328 340.282 606.281 341.658 606.012 343L605.472 346.765L604.932 350.551L602.845 365.119L602.331 368.727L601.607 373.763C601.572 374.182 601.465 374.592 601.291 374.974C601.075 375.332 600.773 375.63 600.414 375.843C600.054 376.056 599.647 376.176 599.229 376.192C598.395 376.218 597.563 376.105 596.766 375.856L590.839 374.368C590.579 374.322 590.332 374.221 590.115 374.072C589.934 373.895 589.803 373.673 589.736 373.429C589.669 373.185 589.668 372.928 589.733 372.683C589.818 372.183 590.036 371.715 590.108 371.215C590.253 370.241 589.845 369.24 589.99 368.272C590.132 367.656 590.353 367.061 590.648 366.502C592.624 362.137 591.478 357.042 592.15 352.302C592.754 348.571 594.33 345.066 596.72 342.137C598.195 340.289 599.889 338.627 601.765 337.187C602.502 336.614 603.675 335.436 604.603 335.212C605.795 334.962 605.545 336.456 605.742 337.286Z" fill="#6C63FF"/>
<path d="M560.888 280.579C560.453 281.962 561.131 283.482 560.822 284.891C560.486 286.445 559.024 287.524 558.609 289.084C557.95 291.461 559.966 293.627 561.441 295.602C566.907 302.935 566.189 313.087 564.319 322.033C562.814 329.211 560.733 336.256 558.095 343.099C557.272 345.225 556.363 347.385 554.743 348.978C557.773 348.109 560.993 347.233 564.029 348.076C567.875 349.142 571.194 352.875 575.093 352.026C577.437 351.506 579.084 349.425 581.191 348.273C585.143 346.147 589.904 347.483 594.31 348.168C595.259 348.392 596.253 348.342 597.175 348.023C597.879 347.644 598.477 347.094 598.913 346.423C600.879 343.902 602.057 340.856 602.298 337.668C602.402 336.08 602.168 334.489 601.611 332.999C601.053 331.509 600.185 330.154 599.065 329.024C598.13 328.142 597.01 327.431 596.292 326.391C595.594 325.176 595.22 323.803 595.205 322.402C594.685 315.16 596.45 307.767 594.633 300.763C593.974 298.268 592.9 295.878 592.611 293.324C592.249 290.144 593.111 286.741 591.847 283.831C590.852 281.52 588.659 279.881 586.295 279.039C583.931 278.196 581.402 277.959 578.893 277.722C575.284 277.419 562.396 275.872 560.888 280.579Z" fill="#33313F"/>
<g opacity="0.1">
<path opacity="0.1" d="M564.319 322.032C562.821 329.18 560.751 336.197 558.128 343.013C558.583 342.111 558.965 341.163 559.327 340.222C561.967 333.379 564.048 326.334 565.55 319.156C567.427 310.203 568.145 300.065 562.679 292.724C561.362 290.973 559.669 289.077 559.728 287.023C559.242 287.645 558.863 288.343 558.609 289.091C557.95 291.467 559.966 293.633 561.441 295.608C566.907 302.935 566.189 313.086 564.319 322.032Z" fill="black"/>
<path opacity="0.1" d="M560.901 284.226C561.429 283.57 561.823 282.816 562.06 282.007C562.162 281.029 562.135 280.042 561.981 279.071C561.473 279.453 561.093 279.978 560.888 280.579C560.499 281.744 560.947 283.008 560.901 284.226Z" fill="black"/>
<path opacity="0.1" d="M600.151 343.526C599.715 344.195 599.117 344.743 598.413 345.12C597.492 345.445 596.497 345.495 595.548 345.264C591.142 344.606 586.328 343.25 582.429 345.376C580.315 346.522 578.676 348.602 576.324 349.129C572.432 349.998 569.113 346.265 565.267 345.179C562.541 344.422 559.669 345.047 556.923 345.837C556.377 347 555.641 348.064 554.743 348.984C557.773 348.115 560.993 347.239 564.029 348.082C567.875 349.148 571.194 352.881 575.093 352.032C577.437 351.512 579.084 349.432 581.191 348.28C585.143 346.153 589.904 347.49 594.31 348.174C595.259 348.398 596.253 348.348 597.175 348.029C597.879 347.651 598.477 347.1 598.913 346.43C600.107 344.856 601.028 343.094 601.64 341.216C601.2 342.021 600.702 342.793 600.151 343.526Z" fill="black"/>
</g>
</g>
<defs>
<linearGradient id="paint0_linear" x1="506.174" y1="403.163" x2="606.935" y2="403.163" gradientUnits="userSpaceOnUse">
<stop stop-color="#808080" stop-opacity="0.25"/>
<stop offset="0.54" stop-color="#808080" stop-opacity="0.12"/>
<stop offset="1" stop-color="#808080" stop-opacity="0.1"/>
</linearGradient>
<clipPath id="clip0">
<rect width="768" height="530" fill="white"/>
</clipPath>
</defs>
</svg>
